{"asset":{"version":"2.0","generator":"Blockbench 5.0.4 glTF exporter"},"scenes":[{"nodes":[0],"name":"blockbench_export"}],"scene":0,"nodes":[{"name":"ROBLOXBoyR15","mesh":0}],"bufferViews":[{"buffer":0,"byteOffset":0,"byteLength":222768,"target":34962,"byteStride":12},{"buffer":0,"byteOffset":222768,"byteLength":222768,"target":34962,"byteStride":12},{"buffer":0,"byteOffset":445536,"byteLength":148512,"target":34962,"byteStride":8},{"buffer":0,"byteOffset":594048,"byteLength":37128,"target":34963}],"buffers":[{"byteLength":631176,"uri":"data:application/octet-stream;base64,"}],"accessors":[{"bufferView":0,"componentType":5126,"count":18564,"max":[1.729259967803955,5.025660037994385,0.7632099986076355],"min":[-1.7298599481582642,-0.04678000137209892,-0.5992100238800049],"type":"VEC3"},{"bufferView":1,"componentType":5126,"count":18564,"max":[0.9999847412109375,1,0.9999841451644897],"min":[-0.9999989867210388,-1,-0.9999841451644897],"type":"VEC3"},{"bufferView":2,"componentType":5126,"count":18564,"max":[0.8203125,0.8203125],"min":[0,0],"type":"VEC2"},{"bufferView":3,"componentType":5123,"count":18564,"max":[18563],"min":[0],"type":"SCALAR"}],"materials":[{"pbrMetallicRoughness":{"metallicFactor":0,"roughnessFactor":1,"baseColorTexture":{"index":0}},"alphaMode":"MASK","alphaCutoff":0.05,"doubleSided":true}],"textures":[{"sampler":0,"source":0,"name":"texture"}],"samplers":[{"magFilter":9728,"minFilter":9728,"wrapS":33071,"wrapT":33071}],"images":[{"mimeType":"image/png","uri":"data:image/png;base64,"}],"meshes":[{"primitives":[{"mode":4,"attributes":{"POSITION":0,"NORMAL":1,"TEXCOORD_0":2},"indices":3,"material":0}]}]}